STARTFONT 2.1
FONT -artwiz-lime-medium-r-normal--10-110-75-75-m-50-ISO8859-1
SIZE 10 75 75
FONTBOUNDINGBOX 7 16 0 -2
STARTPROPERTIES 27
FONTNAME_REGISTRY ""
FOUNDRY "artwiz"
FAMILY_NAME "lime"
WEIGHT_NAME "medium"
SLANT "r"
SETWIDTH_NAME "normal"
ADD_STYLE_NAME ""
PIXEL_SIZE 10
POINT_SIZE 110
RESOLUTION_X 75
RESOLUTION_Y 75
SPACING "m"
AVERAGE_WIDTH 50
CHARSET_REGISTRY "ISO8859"
CHARSET_ENCODING "1"
COPYRIGHT "artwiz, fixed by aleczapka, latin1 chars by Sergio Martins"
FACE_NAME "lime"
WEIGHT 10
RESOLUTION 99
X_HEIGHT 6
QUAD_WIDTH 7
_XMBDFED_INFO "Edited with xmbdfed 4.7."
DEFAULT_CHAR 63
FONT_ASCENT 9
FONT_DESCENT 2
_ORIGINAL_FONT_NAME "lime"
_GBDFED_INFO "Edited with gbdfed 1.1."
ENDPROPERTIES
CHARS 210
STARTCHAR char0
ENCODING 0
SWIDTH 672 0
DWIDTH 7 0
BBX 5 12 1 1
BITMAP
F8
F8
F8
F8
F8
F8
F8
F8
F8
F8
F8
F8
ENDCHAR
STARTCHAR char1
ENCODING 1
SWIDTH 672 0
DWIDTH 7 0
BBX 5 5 1 3
BITMAP
20
70
F8
70
20
ENDCHAR
STARTCHAR char2
ENCODING 2
SWIDTH 672 0
DWIDTH 7 0
BBX 5 12 1 1
BITMAP
A8
50
A8
50
A8
50
A8
50
A8
50
A8
50
ENDCHAR
STARTCHAR char9
ENCODING 9
SWIDTH 672 0
DWIDTH 7 0
BBX 0 0 0 0
BITMAP
ENDCHAR
STARTCHAR char10
ENCODING 10
SWIDTH 672 0
DWIDTH 7 0
BBX 0 0 0 0
BITMAP
ENDCHAR
STARTCHAR char11
ENCODING 11
SWIDTH 672 0
DWIDTH 7 0
BBX 4 9 0 5
BITMAP
10
10
10
10
10
10
10
10
F0
ENDCHAR
STARTCHAR char11
ENCODING 12
SWIDTH 672 0
DWIDTH 7 0
BBX 4 7 0 -1
BITMAP
F0
10
10
10
10
10
10
ENDCHAR
STARTCHAR char11
ENCODING 13
SWIDTH 672 0
DWIDTH 7 0
BBX 4 7 3 -1
BITMAP
F0
80
80
80
80
80
80
ENDCHAR
STARTCHAR char11
ENCODING 14
SWIDTH 672 0
DWIDTH 7 0
BBX 4 9 3 5
BITMAP
80
80
80
80
80
80
80
80
F0
ENDCHAR
STARTCHAR char15
ENCODING 15
SWIDTH 672 0
DWIDTH 7 0
BBX 7 15 0 -1
BITMAP
10
10
10
10
10
10
10
10
FE
10
10
10
10
10
10
ENDCHAR
STARTCHAR char16
ENCODING 16
SWIDTH 672 0
DWIDTH 7 0
BBX 7 1 0 10
BITMAP
FE
ENDCHAR
STARTCHAR char17
ENCODING 17
SWIDTH 672 0
DWIDTH 7 0
BBX 7 1 0 8
BITMAP
FE
ENDCHAR
STARTCHAR char18
ENCODING 18
SWIDTH 672 0
DWIDTH 7 0
BBX 7 1 0 5
BITMAP
FE
ENDCHAR
STARTCHAR char19
ENCODING 19
SWIDTH 672 0
DWIDTH 7 0
BBX 7 1 0 3
BITMAP
FE
ENDCHAR
STARTCHAR char20
ENCODING 20
SWIDTH 672 0
DWIDTH 7 0
BBX 7 1 0 0
BITMAP
FE
ENDCHAR
STARTCHAR char21
ENCODING 21
SWIDTH 672 0
DWIDTH 7 0
BBX 4 15 3 -1
BITMAP
80
80
80
80
80
80
80
80
F0
80
80
80
80
80
80
ENDCHAR
STARTCHAR char22
ENCODING 22
SWIDTH 672 0
DWIDTH 7 0
BBX 4 15 0 -1
BITMAP
10
10
10
10
10
10
10
10
F0
10
10
10
10
10
10
ENDCHAR
STARTCHAR char23
ENCODING 23
SWIDTH 672 0
DWIDTH 7 0
BBX 7 9 0 5
BITMAP
10
10
10
10
10
10
10
10
FE
ENDCHAR
STARTCHAR char24
ENCODING 24
SWIDTH 672 0
DWIDTH 7 0
BBX 7 6 0 0
BITMAP
FE
10
10
10
10
10
ENDCHAR
STARTCHAR char25
ENCODING 25
SWIDTH 672 0
DWIDTH 7 0
BBX 1 15 3 -1
BITMAP
80
80
80
80
80
80
80
80
80
80
80
80
80
80
80
ENDCHAR
STARTCHAR char32
ENCODING 32
SWIDTH 672 0
DWIDTH 7 0
BBX 0 0 0 0
BITMAP
ENDCHAR
STARTCHAR char33
ENCODING 33
SWIDTH 672 0
DWIDTH 7 0
BBX 1 6 2 0
BITMAP
80
80
80
80
00
80
ENDCHAR
STARTCHAR char34
ENCODING 34
SWIDTH 672 0
DWIDTH 7 0
BBX 3 3 1 4
BITMAP
A0
A0
A0
ENDCHAR
STARTCHAR char35
ENCODING 35
SWIDTH 672 0
DWIDTH 7 0
BBX 5 5 0 0
BITMAP
50
D8
50
D8
50
ENDCHAR
STARTCHAR char36
ENCODING 36
SWIDTH 672 0
DWIDTH 7 0
BBX 5 7 0 0
BITMAP
20
78
A0
70
28
F0
20
ENDCHAR
STARTCHAR char37
ENCODING 37
SWIDTH 672 0
DWIDTH 7 0
BBX 4 6 1 0
BITMAP
80
90
20
40
90
10
ENDCHAR
STARTCHAR char38
ENCODING 38
SWIDTH 672 0
DWIDTH 7 0
BBX 5 6 0 0
BITMAP
40
A0
40
A8
90
68
ENDCHAR
STARTCHAR char39
ENCODING 39
SWIDTH 672 0
DWIDTH 7 0
BBX 2 3 1 4
BITMAP
40
40
80
ENDCHAR
STARTCHAR char40
ENCODING 40
SWIDTH 672 0
DWIDTH 7 0
BBX 2 8 2 -1
BITMAP
40
80
80
80
80
80
80
40
ENDCHAR
STARTCHAR char41
ENCODING 41
SWIDTH 672 0
DWIDTH 7 0
BBX 2 8 2 -1
BITMAP
80
40
40
40
40
40
40
80
ENDCHAR
STARTCHAR char42
ENCODING 42
SWIDTH 672 0
DWIDTH 7 0
BBX 4 5 1 0
BITMAP
90
60
F0
60
90
ENDCHAR
STARTCHAR char43
ENCODING 43
SWIDTH 672 0
DWIDTH 7 0
BBX 5 5 0 1
BITMAP
20
20
F8
20
20
ENDCHAR
STARTCHAR char44
ENCODING 44
SWIDTH 672 0
DWIDTH 7 0
BBX 2 3 1 -1
BITMAP
40
40
80
ENDCHAR
STARTCHAR char45
ENCODING 45
SWIDTH 672 0
DWIDTH 7 0
BBX 4 1 1 3
BITMAP
F0
ENDCHAR
STARTCHAR char46
ENCODING 46
SWIDTH 672 0
DWIDTH 7 0
BBX 1 2 2 0
BITMAP
80
80
ENDCHAR
STARTCHAR char47
ENCODING 47
SWIDTH 672 0
DWIDTH 7 0
BBX 4 8 1 -1
BITMAP
10
10
20
20
40
40
80
80
ENDCHAR
STARTCHAR char48
ENCODING 48
SWIDTH 672 0
DWIDTH 7 0
BBX 4 6 1 0
BITMAP
60
90
B0
D0
90
60
ENDCHAR
STARTCHAR char49
ENCODING 49
SWIDTH 672 0
DWIDTH 7 0
BBX 2 6 1 0
BITMAP
40
C0
40
40
40
40
ENDCHAR
STARTCHAR char50
ENCODING 50
SWIDTH 672 0
DWIDTH 7 0
BBX 4 6 1 0
BITMAP
E0
10
10
60
80
F0
ENDCHAR
STARTCHAR char51
ENCODING 51
SWIDTH 672 0
DWIDTH 7 0
BBX 4 6 1 0
BITMAP
E0
10
60
10
10
E0
ENDCHAR
STARTCHAR char52
ENCODING 52
SWIDTH 672 0
DWIDTH 7 0
BBX 4 6 1 0
BITMAP
90
90
90
70
10
10
ENDCHAR
STARTCHAR char53
ENCODING 53
SWIDTH 672 0
DWIDTH 7 0
BBX 4 6 1 0
BITMAP
F0
80
E0
10
10
E0
ENDCHAR
STARTCHAR char54
ENCODING 54
SWIDTH 672 0
DWIDTH 7 0
BBX 4 6 1 0
BITMAP
60
80
E0
90
90
60
ENDCHAR
STARTCHAR char55
ENCODING 55
SWIDTH 672 0
DWIDTH 7 0
BBX 4 6 1 0
BITMAP
F0
10
20
20
40
40
ENDCHAR
STARTCHAR char56
ENCODING 56
SWIDTH 672 0
DWIDTH 7 0
BBX 4 6 1 0
BITMAP
60
90
60
90
90
60
ENDCHAR
STARTCHAR char57
ENCODING 57
SWIDTH 672 0
DWIDTH 7 0
BBX 4 6 1 0
BITMAP
60
90
90
70
10
60
ENDCHAR
STARTCHAR char58
ENCODING 58
SWIDTH 672 0
DWIDTH 7 0
BBX 1 5 2 0
BITMAP
80
80
00
80
80
ENDCHAR
STARTCHAR char59
ENCODING 59
SWIDTH 672 0
DWIDTH 7 0
BBX 2 6 1 -1
BITMAP
40
40
00
40
40
80
ENDCHAR
STARTCHAR char60
ENCODING 60
SWIDTH 672 0
DWIDTH 7 0
BBX 4 7 1 0
BITMAP
10
20
40
80
40
20
10
ENDCHAR
STARTCHAR char61
ENCODING 61
SWIDTH 672 0
DWIDTH 7 0
BBX 4 3 1 2
BITMAP
F0
00
F0
ENDCHAR
STARTCHAR char62
ENCODING 62
SWIDTH 672 0
DWIDTH 7 0
BBX 4 7 1 0
BITMAP
80
40
20
10
20
40
80
ENDCHAR
STARTCHAR char63
ENCODING 63
SWIDTH 672 0
DWIDTH 7 0
BBX 4 6 1 0
BITMAP
E0
10
20
40
00
40
ENDCHAR
STARTCHAR char64
ENCODING 64
SWIDTH 672 0
DWIDTH 7 0
BBX 4 6 1 0
BITMAP
60
90
B0
B0
80
60
ENDCHAR
STARTCHAR char65
ENCODING 65
SWIDTH 672 0
DWIDTH 7 0
BBX 4 6 1 0
BITMAP
60
90
90
F0
90
90
ENDCHAR
STARTCHAR char66
ENCODING 66
SWIDTH 672 0
DWIDTH 7 0
BBX 4 6 1 0
BITMAP
E0
90
E0
90
90
E0
ENDCHAR
STARTCHAR char67
ENCODING 67
SWIDTH 672 0
DWIDTH 7 0
BBX 4 6 1 0
BITMAP
70
80
80
80
80
70
ENDCHAR
STARTCHAR char68
ENCODING 68
SWIDTH 672 0
DWIDTH 7 0
BBX 4 6 1 0
BITMAP
E0
90
90
90
90
E0
ENDCHAR
STARTCHAR char69
ENCODING 69
SWIDTH 672 0
DWIDTH 7 0
BBX 4 6 1 0
BITMAP
F0
80
E0
80
80
F0
ENDCHAR
STARTCHAR char70
ENCODING 70
SWIDTH 672 0
DWIDTH 7 0
BBX 4 6 1 0
BITMAP
F0
80
E0
80
80
80
ENDCHAR
STARTCHAR char71
ENCODING 71
SWIDTH 672 0
DWIDTH 7 0
BBX 4 6 1 0
BITMAP
60
80
B0
90
90
60
ENDCHAR
STARTCHAR char72
ENCODING 72
SWIDTH 672 0
DWIDTH 7 0
BBX 4 6 1 0
BITMAP
90
90
F0
90
90
90
ENDCHAR
STARTCHAR char73
ENCODING 73
SWIDTH 672 0
DWIDTH 7 0
BBX 3 6 1 0
BITMAP
E0
40
40
40
40
E0
ENDCHAR
STARTCHAR char74
ENCODING 74
SWIDTH 672 0
DWIDTH 7 0
BBX 4 6 1 0
BITMAP
70
10
10
10
90
60
ENDCHAR
STARTCHAR char75
ENCODING 75
SWIDTH 672 0
DWIDTH 7 0
BBX 4 6 1 0
BITMAP
90
A0
C0
A0
90
90
ENDCHAR
STARTCHAR char76
ENCODING 76
SWIDTH 672 0
DWIDTH 7 0
BBX 4 6 1 0
BITMAP
80
80
80
80
80
F0
ENDCHAR
STARTCHAR char77
ENCODING 77
SWIDTH 672 0
DWIDTH 7 0
BBX 4 6 1 0
BITMAP
90
F0
B0
90
90
90
ENDCHAR
STARTCHAR char78
ENCODING 78
SWIDTH 672 0
DWIDTH 7 0
BBX 4 6 1 0
BITMAP
E0
90
90
90
90
90
ENDCHAR
STARTCHAR char79
ENCODING 79
SWIDTH 672 0
DWIDTH 7 0
BBX 4 6 1 0
BITMAP
60
90
90
90
90
60
ENDCHAR
STARTCHAR char80
ENCODING 80
SWIDTH 672 0
DWIDTH 7 0
BBX 4 6 1 0
BITMAP
E0
90
90
E0
80
80
ENDCHAR
STARTCHAR char81
ENCODING 81
SWIDTH 672 0
DWIDTH 7 0
BBX 4 7 1 -1
BITMAP
60
90
90
90
90
60
30
ENDCHAR
STARTCHAR char82
ENCODING 82
SWIDTH 672 0
DWIDTH 7 0
BBX 4 6 1 0
BITMAP
E0
90
90
E0
90
90
ENDCHAR
STARTCHAR char83
ENCODING 83
SWIDTH 672 0
DWIDTH 7 0
BBX 4 6 1 0
BITMAP
70
80
60
10
10
E0
ENDCHAR
STARTCHAR char84
ENCODING 84
SWIDTH 672 0
DWIDTH 7 0
BBX 5 6 0 0
BITMAP
F8
20
20
20
20
20
ENDCHAR
STARTCHAR char85
ENCODING 85
SWIDTH 672 0
DWIDTH 7 0
BBX 4 6 1 0
BITMAP
90
90
90
90
90
70
ENDCHAR
STARTCHAR char86
ENCODING 86
SWIDTH 672 0
DWIDTH 7 0
BBX 4 6 1 0
BITMAP
90
90
90
90
60
60
ENDCHAR
STARTCHAR char87
ENCODING 87
SWIDTH 672 0
DWIDTH 7 0
BBX 4 6 1 0
BITMAP
90
90
90
B0
F0
90
ENDCHAR
STARTCHAR char88
ENCODING 88
SWIDTH 672 0
DWIDTH 7 0
BBX 4 6 1 0
BITMAP
90
90
60
90
90
90
ENDCHAR
STARTCHAR char89
ENCODING 89
SWIDTH 672 0
DWIDTH 7 0
BBX 5 6 0 0
BITMAP
88
50
20
20
20
20
ENDCHAR
STARTCHAR char90
ENCODING 90
SWIDTH 672 0
DWIDTH 7 0
BBX 4 6 1 0
BITMAP
F0
10
20
40
80
F0
ENDCHAR
STARTCHAR char91
ENCODING 91
SWIDTH 672 0
DWIDTH 7 0
BBX 3 8 1 -1
BITMAP
E0
80
80
80
80
80
80
E0
ENDCHAR
STARTCHAR char92
ENCODING 92
SWIDTH 672 0
DWIDTH 7 0
BBX 4 8 1 -1
BITMAP
80
80
40
40
20
20
10
10
ENDCHAR
STARTCHAR char93
ENCODING 93
SWIDTH 672 0
DWIDTH 7 0
BBX 3 8 1 -1
BITMAP
E0
20
20
20
20
20
20
E0
ENDCHAR
STARTCHAR char94
ENCODING 94
SWIDTH 672 0
DWIDTH 7 0
BBX 5 3 0 4
BITMAP
20
50
88
ENDCHAR
STARTCHAR char95
ENCODING 95
SWIDTH 672 0
DWIDTH 7 0
BBX 4 1 1 -1
BITMAP
F0
ENDCHAR
STARTCHAR char96
ENCODING 96
SWIDTH 672 0
DWIDTH 7 0
BBX 2 3 2 4
BITMAP
80
80
40
ENDCHAR
STARTCHAR char97
ENCODING 97
SWIDTH 672 0
DWIDTH 7 0
BBX 4 5 1 0
BITMAP
70
90
90
B0
50
ENDCHAR
STARTCHAR char98
ENCODING 98
SWIDTH 672 0
DWIDTH 7 0
BBX 4 7 1 0
BITMAP
80
80
E0
90
90
90
E0
ENDCHAR
STARTCHAR char99
ENCODING 99
SWIDTH 672 0
DWIDTH 7 0
BBX 4 5 1 0
BITMAP
70
80
80
80
70
ENDCHAR
STARTCHAR char100
ENCODING 100
SWIDTH 672 0
DWIDTH 7 0
BBX 4 7 1 0
BITMAP
10
10
70
90
90
90
70
ENDCHAR
STARTCHAR char101
ENCODING 101
SWIDTH 672 0
DWIDTH 7 0
BBX 4 5 1 0
BITMAP
60
90
F0
80
70
ENDCHAR
STARTCHAR char102
ENCODING 102
SWIDTH 672 0
DWIDTH 7 0
BBX 3 7 1 0
BITMAP
20
40
E0
40
40
40
40
ENDCHAR
STARTCHAR char103
ENCODING 103
SWIDTH 672 0
DWIDTH 7 0
BBX 4 7 1 -2
BITMAP
70
90
90
90
70
10
60
ENDCHAR
STARTCHAR char104
ENCODING 104
SWIDTH 672 0
DWIDTH 7 0
BBX 4 7 1 0
BITMAP
80
80
E0
90
90
90
90
ENDCHAR
STARTCHAR char105
ENCODING 105
SWIDTH 672 0
DWIDTH 7 0
BBX 1 7 3 0
BITMAP
80
00
80
80
80
80
80
ENDCHAR
STARTCHAR char106
ENCODING 106
SWIDTH 672 0
DWIDTH 7 0
BBX 3 9 1 -2
BITMAP
20
00
20
20
20
20
20
20
C0
ENDCHAR
STARTCHAR char107
ENCODING 107
SWIDTH 672 0
DWIDTH 7 0
BBX 4 7 1 0
BITMAP
80
80
90
A0
C0
A0
90
ENDCHAR
STARTCHAR char108
ENCODING 108
SWIDTH 672 0
DWIDTH 7 0
BBX 1 7 3 0
BITMAP
80
80
80
80
80
80
80
ENDCHAR
STARTCHAR char109
ENCODING 109
SWIDTH 672 0
DWIDTH 7 0
BBX 4 5 1 0
BITMAP
90
F0
B0
90
90
ENDCHAR
STARTCHAR char110
ENCODING 110
SWIDTH 672 0
DWIDTH 7 0
BBX 4 5 1 0
BITMAP
E0
90
90
90
90
ENDCHAR
STARTCHAR char111
ENCODING 111
SWIDTH 672 0
DWIDTH 7 0
BBX 4 5 1 0
BITMAP
60
90
90
90
60
ENDCHAR
STARTCHAR char112
ENCODING 112
SWIDTH 672 0
DWIDTH 7 0
BBX 4 7 1 -2
BITMAP
E0
90
90
90
E0
80
80
ENDCHAR
STARTCHAR char113
ENCODING 113
SWIDTH 672 0
DWIDTH 7 0
BBX 4 7 1 -2
BITMAP
70
90
90
90
70
10
10
ENDCHAR
STARTCHAR char114
ENCODING 114
SWIDTH 672 0
DWIDTH 7 0
BBX 4 5 1 0
BITMAP
B0
C0
80
80
80
ENDCHAR
STARTCHAR char115
ENCODING 115
SWIDTH 672 0
DWIDTH 7 0
BBX 4 5 1 0
BITMAP
70
80
60
10
E0
ENDCHAR
STARTCHAR char116
ENCODING 116
SWIDTH 672 0
DWIDTH 7 0
BBX 3 6 1 0
BITMAP
40
E0
40
40
40
40
ENDCHAR
STARTCHAR char117
ENCODING 117
SWIDTH 672 0
DWIDTH 7 0
BBX 4 5 1 0
BITMAP
90
90
90
90
70
ENDCHAR
STARTCHAR char118
ENCODING 118
SWIDTH 672 0
DWIDTH 7 0
BBX 4 5 1 0
BITMAP
90
90
90
60
60
ENDCHAR
STARTCHAR char119
ENCODING 119
SWIDTH 672 0
DWIDTH 7 0
BBX 4 5 1 0
BITMAP
90
90
B0
F0
90
ENDCHAR
STARTCHAR char120
ENCODING 120
SWIDTH 672 0
DWIDTH 7 0
BBX 4 5 1 0
BITMAP
90
90
60
90
90
ENDCHAR
STARTCHAR char121
ENCODING 121
SWIDTH 672 0
DWIDTH 7 0
BBX 4 7 1 -2
BITMAP
90
90
90
90
70
10
60
ENDCHAR
STARTCHAR char122
ENCODING 122
SWIDTH 672 0
DWIDTH 7 0
BBX 4 5 1 0
BITMAP
F0
20
40
80
F0
ENDCHAR
STARTCHAR char123
ENCODING 123
SWIDTH 672 0
DWIDTH 7 0
BBX 3 8 1 -1
BITMAP
20
40
40
C0
40
40
40
20
ENDCHAR
STARTCHAR char124
ENCODING 124
SWIDTH 672 0
DWIDTH 7 0
BBX 1 9 2 -1
BITMAP
80
80
80
80
80
80
80
80
80
ENDCHAR
STARTCHAR char125
ENCODING 125
SWIDTH 672 0
DWIDTH 7 0
BBX 3 8 2 -1
BITMAP
80
40
40
60
40
40
40
80
ENDCHAR
STARTCHAR char126
ENCODING 126
SWIDTH 672 0
DWIDTH 7 0
BBX 5 3 0 3
BITMAP
40
A8
10
ENDCHAR
STARTCHAR char33
ENCODING 161
SWIDTH 672 0
DWIDTH 7 0
BBX 1 6 2 0
BITMAP
80
00
80
80
80
80
ENDCHAR
STARTCHAR char99
ENCODING 162
SWIDTH 672 0
DWIDTH 7 0
BBX 4 7 1 -1
BITMAP
10
70
A0
A0
A0
70
40
ENDCHAR
STARTCHAR char156
ENCODING 163
SWIDTH 672 0
DWIDTH 7 0
BBX 5 7 0 0
BITMAP
30
40
40
E0
40
48
F0
ENDCHAR
STARTCHAR char164
ENCODING 164
SWIDTH 672 0
DWIDTH 7 0
BBX 5 6 1 1
BITMAP
88
70
50
50
70
88
ENDCHAR
STARTCHAR char157
ENCODING 165
SWIDTH 672 0
DWIDTH 7 0
BBX 5 9 0 0
BITMAP
88
88
50
20
F8
20
F8
20
20
ENDCHAR
STARTCHAR char250
ENCODING 166
SWIDTH 672 0
DWIDTH 7 0
BBX 2 1 2 1
BITMAP
C0
ENDCHAR
STARTCHAR char167
ENCODING 167
SWIDTH 672 0
DWIDTH 7 0
BBX 5 9 0 -1
BITMAP
30
48
60
90
88
48
30
90
60
ENDCHAR
STARTCHAR char168
ENCODING 168
SWIDTH 672 0
DWIDTH 7 0
BBX 3 1 2 6
BITMAP
A0
ENDCHAR
STARTCHAR char169
ENCODING 169
SWIDTH 672 0
DWIDTH 7 0
BBX 7 7 0 0
BITMAP
38
44
BA
A2
BA
44
38
ENDCHAR
STARTCHAR char97
ENCODING 170
SWIDTH 672 0
DWIDTH 7 0
BBX 4 4 1 4
BITMAP
70
90
B0
50
ENDCHAR
STARTCHAR char174
ENCODING 171
SWIDTH 672 0
DWIDTH 7 0
BBX 4 3 1 2
BITMAP
50
A0
50
ENDCHAR
STARTCHAR char172
ENCODING 172
SWIDTH 672 0
DWIDTH 7 0
BBX 5 3 1 1
BITMAP
F8
08
08
ENDCHAR
STARTCHAR char173
ENCODING 173
SWIDTH 672 0
DWIDTH 7 0
BBX 0 0 0 0
BITMAP
ENDCHAR
STARTCHAR char174
ENCODING 174
SWIDTH 672 0
DWIDTH 7 0
BBX 7 7 0 0
BITMAP
38
44
BA
B2
AA
44
38
ENDCHAR
STARTCHAR char175
ENCODING 175
SWIDTH 672 0
DWIDTH 7 0
BBX 3 1 2 7
BITMAP
E0
ENDCHAR
STARTCHAR char176
ENCODING 176
SWIDTH 672 0
DWIDTH 7 0
BBX 3 3 0 4
BITMAP
40
A0
40
ENDCHAR
STARTCHAR char241
ENCODING 177
SWIDTH 672 0
DWIDTH 7 0
BBX 3 5 1 1
BITMAP
40
E0
40
00
E0
ENDCHAR
STARTCHAR char253
ENCODING 178
SWIDTH 672 0
DWIDTH 7 0
BBX 3 4 1 3
BITMAP
C0
20
40
E0
ENDCHAR
STARTCHAR char253
ENCODING 179
SWIDTH 672 0
DWIDTH 7 0
BBX 2 5 1 2
BITMAP
80
40
80
40
80
ENDCHAR
STARTCHAR char180
ENCODING 180
SWIDTH 672 0
DWIDTH 7 0
BBX 2 2 1 6
BITMAP
40
80
ENDCHAR
STARTCHAR char117
ENCODING 181
SWIDTH 672 0
DWIDTH 7 0
BBX 4 6 1 -1
BITMAP
90
90
90
90
E0
80
ENDCHAR
STARTCHAR char113
ENCODING 182
SWIDTH 672 0
DWIDTH 7 0
BBX 6 7 1 0
BITMAP
7C
94
94
94
74
14
14
ENDCHAR
STARTCHAR char183
ENCODING 183
SWIDTH 672 0
DWIDTH 7 0
BBX 1 1 3 3
BITMAP
80
ENDCHAR
STARTCHAR char184
ENCODING 184
SWIDTH 672 0
DWIDTH 7 0
BBX 3 3 2 1
BITMAP
40
20
E0
ENDCHAR
STARTCHAR char185
ENCODING 185
SWIDTH 672 0
DWIDTH 7 0
BBX 2 5 1 2
BITMAP
40
C0
40
40
40
ENDCHAR
STARTCHAR char186
ENCODING 186
SWIDTH 672 0
DWIDTH 7 0
BBX 4 4 1 4
BITMAP
60
90
90
60
ENDCHAR
STARTCHAR char175
ENCODING 187
SWIDTH 672 0
DWIDTH 7 0
BBX 4 3 1 2
BITMAP
A0
50
A0
ENDCHAR
STARTCHAR char179
ENCODING 188
SWIDTH 672 0
DWIDTH 7 0
BBX 5 8 1 0
BITMAP
40
C0
40
50
30
50
78
10
ENDCHAR
STARTCHAR char189
ENCODING 189
SWIDTH 672 0
DWIDTH 7 0
BBX 5 7 1 1
BITMAP
40
C0
40
70
08
10
38
ENDCHAR
STARTCHAR char179
ENCODING 190
SWIDTH 672 0
DWIDTH 7 0
BBX 6 8 0 0
BITMAP
C0
20
40
28
D8
28
3C
08
ENDCHAR
STARTCHAR char63
ENCODING 191
SWIDTH 672 0
DWIDTH 7 0
BBX 4 6 1 0
BITMAP
20
00
20
40
80
70
ENDCHAR
STARTCHAR char196
ENCODING 192
SWIDTH 672 0
DWIDTH 7 0
BBX 4 9 1 0
BITMAP
40
20
00
60
90
90
F0
90
90
ENDCHAR
STARTCHAR char196
ENCODING 193
SWIDTH 672 0
DWIDTH 7 0
BBX 4 9 1 0
BITMAP
20
40
00
60
90
90
F0
90
90
ENDCHAR
STARTCHAR char196
ENCODING 194
SWIDTH 672 0
DWIDTH 7 0
BBX 4 8 1 0
BITMAP
40
A0
00
60
90
90
F0
90
ENDCHAR
STARTCHAR char196
ENCODING 195
SWIDTH 672 0
DWIDTH 7 0
BBX 4 8 1 0
BITMAP
50
A0
00
60
90
90
F0
90
ENDCHAR
STARTCHAR char196
ENCODING 196
SWIDTH 672 0
DWIDTH 7 0
BBX 4 8 1 0
BITMAP
90
00
60
90
90
F0
90
90
ENDCHAR
STARTCHAR char197
ENCODING 197
SWIDTH 672 0
DWIDTH 7 0
BBX 4 8 1 0
BITMAP
60
90
60
90
90
F0
90
90
ENDCHAR
STARTCHAR char197
ENCODING 198
SWIDTH 672 0
DWIDTH 7 0
BBX 5 6 0 0
BITMAP
78
A0
B0
E0
A0
B8
ENDCHAR
STARTCHAR char67
ENCODING 199
SWIDTH 672 0
DWIDTH 7 0
BBX 4 8 1 -2
BITMAP
70
80
80
80
80
70
20
40
ENDCHAR
STARTCHAR char69
ENCODING 200
SWIDTH 672 0
DWIDTH 7 0
BBX 4 9 1 0
BITMAP
40
20
00
F0
80
E0
80
80
F0
ENDCHAR
STARTCHAR char69
ENCODING 201
SWIDTH 672 0
DWIDTH 7 0
BBX 4 9 1 0
BITMAP
20
40
00
F0
80
E0
80
80
F0
ENDCHAR
STARTCHAR char69
ENCODING 202
SWIDTH 672 0
DWIDTH 7 0
BBX 4 9 1 0
BITMAP
40
A0
00
F0
80
E0
80
80
F0
ENDCHAR
STARTCHAR char69
ENCODING 203
SWIDTH 672 0
DWIDTH 7 0
BBX 4 8 1 0
BITMAP
A0
00
F0
80
E0
80
80
F0
ENDCHAR
STARTCHAR char73
ENCODING 204
SWIDTH 672 0
DWIDTH 7 0
BBX 3 9 1 0
BITMAP
80
40
00
E0
40
40
40
40
E0
ENDCHAR
STARTCHAR char73
ENCODING 205
SWIDTH 672 0
DWIDTH 7 0
BBX 3 9 1 0
BITMAP
20
40
00
E0
40
40
40
40
E0
ENDCHAR
STARTCHAR char73
ENCODING 206
SWIDTH 672 0
DWIDTH 7 0
BBX 3 8 1 0
BITMAP
40
A0
00
E0
40
40
40
E0
ENDCHAR
STARTCHAR char73
ENCODING 207
SWIDTH 672 0
DWIDTH 7 0
BBX 3 8 1 0
BITMAP
A0
00
E0
40
40
40
40
E0
ENDCHAR
STARTCHAR char68
ENCODING 208
SWIDTH 672 0
DWIDTH 7 0
BBX 5 6 0 0
BITMAP
70
48
E8
48
48
70
ENDCHAR
STARTCHAR char78
ENCODING 209
SWIDTH 672 0
DWIDTH 7 0
BBX 4 8 1 0
BITMAP
50
A0
00
E0
90
90
90
90
ENDCHAR
STARTCHAR char214
ENCODING 210
SWIDTH 672 0
DWIDTH 7 0
BBX 4 9 1 0
BITMAP
80
40
00
60
90
90
90
90
60
ENDCHAR
STARTCHAR char214
ENCODING 211
SWIDTH 672 0
DWIDTH 7 0
BBX 4 9 1 0
BITMAP
20
40
00
60
90
90
90
90
60
ENDCHAR
STARTCHAR char214
ENCODING 212
SWIDTH 672 0
DWIDTH 7 0
BBX 4 9 1 0
BITMAP
40
A0
00
60
90
90
90
90
60
ENDCHAR
STARTCHAR char214
ENCODING 213
SWIDTH 672 0
DWIDTH 7 0
BBX 4 9 1 0
BITMAP
50
A0
00
60
90
90
90
90
60
ENDCHAR
STARTCHAR char214
ENCODING 214
SWIDTH 672 0
DWIDTH 7 0
BBX 5 8 0 0
BITMAP
48
00
30
48
48
48
48
30
ENDCHAR
STARTCHAR char215
ENCODING 215
SWIDTH 672 0
DWIDTH 7 0
BBX 3 3 1 3
BITMAP
A0
40
A0
ENDCHAR
STARTCHAR char237
ENCODING 216
SWIDTH 672 0
DWIDTH 7 0
BBX 5 8 0 0
BITMAP
08
70
98
A8
A8
C8
70
80
ENDCHAR
STARTCHAR char85
ENCODING 217
SWIDTH 672 0
DWIDTH 7 0
BBX 4 8 1 0
BITMAP
40
20
80
90
90
90
90
70
ENDCHAR
STARTCHAR char85
ENCODING 218
SWIDTH 672 0
DWIDTH 7 0
BBX 4 8 1 0
BITMAP
20
40
10
90
90
90
90
70
ENDCHAR
STARTCHAR char85
ENCODING 219
SWIDTH 672 0
DWIDTH 7 0
BBX 4 8 1 0
BITMAP
40
A0
00
90
90
90
90
70
ENDCHAR
STARTCHAR char85
ENCODING 220
SWIDTH 672 0
DWIDTH 7 0
BBX 4 8 1 0
BITMAP
50
00
00
90
90
90
90
70
ENDCHAR
STARTCHAR char89
ENCODING 221
SWIDTH 672 0
DWIDTH 7 0
BBX 5 8 0 0
BITMAP
10
20
88
50
20
20
20
20
ENDCHAR
STARTCHAR char112
ENCODING 222
SWIDTH 672 0
DWIDTH 7 0
BBX 4 9 0 -1
BITMAP
80
80
80
E0
90
90
E0
80
80
ENDCHAR
STARTCHAR char225
ENCODING 223
SWIDTH 672 0
DWIDTH 7 0
BBX 4 8 0 -1
BITMAP
60
90
A0
90
90
A0
80
80
ENDCHAR
STARTCHAR char228
ENCODING 224
SWIDTH 672 0
DWIDTH 7 0
BBX 4 8 1 0
BITMAP
80
40
00
70
90
90
B0
50
ENDCHAR
STARTCHAR char228
ENCODING 225
SWIDTH 672 0
DWIDTH 7 0
BBX 4 8 1 0
BITMAP
20
40
00
70
90
90
B0
50
ENDCHAR
STARTCHAR char228
ENCODING 226
SWIDTH 672 0
DWIDTH 7 0
BBX 4 8 1 0
BITMAP
40
A0
00
70
90
90
B0
50
ENDCHAR
STARTCHAR char228
ENCODING 227
SWIDTH 672 0
DWIDTH 7 0
BBX 4 8 1 0
BITMAP
50
A0
00
70
90
90
B0
50
ENDCHAR
STARTCHAR char228
ENCODING 228
SWIDTH 672 0
DWIDTH 7 0
BBX 5 7 0 0
BITMAP
48
00
38
48
48
58
28
ENDCHAR
STARTCHAR char229
ENCODING 229
SWIDTH 672 0
DWIDTH 7 0
BBX 4 7 1 0
BITMAP
20
00
70
90
90
B0
50
ENDCHAR
STARTCHAR char229
ENCODING 230
SWIDTH 672 0
DWIDTH 7 0
BBX 5 5 0 0
BITMAP
78
90
98
B0
58
ENDCHAR
STARTCHAR char99
ENCODING 231
SWIDTH 672 0
DWIDTH 7 0
BBX 4 7 1 -2
BITMAP
70
80
80
80
70
20
40
ENDCHAR
STARTCHAR char101
ENCODING 232
SWIDTH 672 0
DWIDTH 7 0
BBX 4 8 1 0
BITMAP
80
40
00
60
90
F0
80
70
ENDCHAR
STARTCHAR char101
ENCODING 233
SWIDTH 672 0
DWIDTH 7 0
BBX 4 8 1 0
BITMAP
20
40
00
60
90
F0
80
70
ENDCHAR
STARTCHAR char101
ENCODING 234
SWIDTH 672 0
DWIDTH 7 0
BBX 4 8 1 0
BITMAP
40
A0
00
60
90
F0
80
70
ENDCHAR
STARTCHAR char101
ENCODING 235
SWIDTH 672 0
DWIDTH 7 0
BBX 4 7 1 0
BITMAP
A0
00
60
90
F0
80
70
ENDCHAR
STARTCHAR char105
ENCODING 236
SWIDTH 672 0
DWIDTH 7 0
BBX 2 8 2 0
BITMAP
80
40
00
40
40
40
40
40
ENDCHAR
STARTCHAR char105
ENCODING 237
SWIDTH 672 0
DWIDTH 7 0
BBX 2 8 3 0
BITMAP
40
80
00
80
80
80
80
80
ENDCHAR
STARTCHAR char105
ENCODING 238
SWIDTH 672 0
DWIDTH 7 0
BBX 3 8 2 0
BITMAP
40
A0
00
40
40
40
40
40
ENDCHAR
STARTCHAR char105
ENCODING 239
SWIDTH 672 0
DWIDTH 7 0
BBX 3 7 2 0
BITMAP
A0
00
40
40
40
40
40
ENDCHAR
STARTCHAR char240
ENCODING 240
SWIDTH 672 0
DWIDTH 7 0
BBX 4 8 0 0
BITMAP
50
60
90
70
90
90
90
F0
ENDCHAR
STARTCHAR char110
ENCODING 241
SWIDTH 672 0
DWIDTH 7 0
BBX 4 8 1 0
BITMAP
50
A0
00
E0
90
90
90
90
ENDCHAR
STARTCHAR char246
ENCODING 242
SWIDTH 672 0
DWIDTH 7 0
BBX 4 8 1 0
BITMAP
80
40
00
60
90
90
90
60
ENDCHAR
STARTCHAR char246
ENCODING 243
SWIDTH 672 0
DWIDTH 7 0
BBX 4 8 1 0
BITMAP
10
20
00
60
90
90
90
60
ENDCHAR
STARTCHAR char246
ENCODING 244
SWIDTH 672 0
DWIDTH 7 0
BBX 4 8 1 0
BITMAP
40
A0
00
60
90
90
90
60
ENDCHAR
STARTCHAR char246
ENCODING 245
SWIDTH 672 0
DWIDTH 7 0
BBX 4 8 1 0
BITMAP
50
A0
00
60
90
90
90
60
ENDCHAR
STARTCHAR char246
ENCODING 246
SWIDTH 672 0
DWIDTH 7 0
BBX 5 7 0 0
BITMAP
48
00
30
48
48
48
30
ENDCHAR
STARTCHAR char247
ENCODING 247
SWIDTH 672 0
DWIDTH 7 0
BBX 3 5 0 2
BITMAP
40
00
E0
00
40
ENDCHAR
STARTCHAR char237
ENCODING 248
SWIDTH 672 0
DWIDTH 7 0
BBX 5 9 0 -1
BITMAP
08
08
70
B8
A8
E8
70
80
80
ENDCHAR
STARTCHAR char117
ENCODING 249
SWIDTH 672 0
DWIDTH 7 0
BBX 4 8 1 0
BITMAP
80
40
00
90
90
90
90
70
ENDCHAR
STARTCHAR char117
ENCODING 250
SWIDTH 672 0
DWIDTH 7 0
BBX 4 8 1 0
BITMAP
20
40
00
90
90
90
90
70
ENDCHAR
STARTCHAR char117
ENCODING 251
SWIDTH 672 0
DWIDTH 7 0
BBX 4 8 1 0
BITMAP
40
A0
00
90
90
90
90
70
ENDCHAR
STARTCHAR char117
ENCODING 252
SWIDTH 672 0
DWIDTH 7 0
BBX 4 7 1 0
BITMAP
A0
00
90
90
90
90
70
ENDCHAR
STARTCHAR char121
ENCODING 253
SWIDTH 672 0
DWIDTH 7 0
BBX 4 10 1 -2
BITMAP
20
40
00
90
90
90
90
70
10
60
ENDCHAR
STARTCHAR char112
ENCODING 254
SWIDTH 672 0
DWIDTH 7 0
BBX 4 9 0 -1
BITMAP
80
80
E0
90
90
90
E0
80
80
ENDCHAR
STARTCHAR char121
ENCODING 255
SWIDTH 672 0
DWIDTH 7 0
BBX 4 9 1 -2
BITMAP
50
00
90
90
90
90
70
10
60
ENDCHAR
ENDFONT
